<svg width="150" height="150" viewBox="0 0 150 150" fill="none" xmlns="http://www.w3.org/2000/svg">
<g clip-path="url(#clip0_388_24159)">
<path d="M75 150C116.421 150 150 116.421 150 75C150 33.5786 116.421 0 75 0C33.5786 0 0 33.5786 0 75C0 116.421 33.5786 150 75 150Z" fill="white"/>
<path d="M4.21875 50H145.625C135.469 20.9375 107.656 0 75 0C42.3437 0 14.5312 20.9375 4.21875 50Z" fill="#FF7700"/>
<path d="M145.781 100H4.21875C14.5313 129.063 42.3438 150 75 150C107.656 150 135.469 129.063 145.781 100Z" fill="#005B13"/>
<path fill-rule="evenodd" clip-rule="evenodd" d="M58.5938 75C58.5938 65.939 65.9854 58.5938 75.1034 58.5938C84.221 58.5938 91.6127 65.939 91.6127 75C91.6127 84.061 84.2214 91.4062 75.1034 91.4062C65.9854 91.4062 58.5938 84.061 58.5938 75ZM84.5244 85.9527C84.4314 85.6621 84.161 85.4498 83.8376 85.4498C83.438 85.4498 83.1139 85.7722 83.1139 86.1695C83.1139 86.4273 83.2515 86.652 83.4565 86.779C82.7849 87.2504 82.0732 87.6679 81.3237 88.0218C81.2813 87.6644 80.9792 87.3858 80.6078 87.3858C80.2082 87.3858 79.8838 87.7078 79.8838 88.1051C79.8838 88.2754 79.9458 88.4298 80.0456 88.5533C79.2965 88.8233 78.5174 89.0301 77.7167 89.1749C77.7255 89.1297 77.7309 89.0829 77.7309 89.035C77.7309 88.6377 77.4065 88.3157 77.0069 88.3157C76.6073 88.3157 76.2829 88.6377 76.2829 89.035C76.2829 89.151 76.3129 89.2586 76.3619 89.3555C75.9465 89.3909 75.5277 89.4129 75.1034 89.4129C74.7127 89.4129 74.3262 89.3932 73.9428 89.3627C74.0033 89.2582 74.0403 89.1384 74.0403 89.0095C74.0403 88.6122 73.7158 88.2899 73.3163 88.2899C72.9167 88.2899 72.5922 88.6122 72.5922 89.0095C72.5922 89.0753 72.6038 89.1377 72.6211 89.1981C71.7703 89.0525 70.9434 88.8362 70.1504 88.5499C70.325 88.4184 70.439 88.2123 70.439 87.9777C70.439 87.5804 70.115 87.2584 69.715 87.2584C69.315 87.2584 68.991 87.5804 68.991 87.9777C68.991 88.0083 68.9956 88.038 69.0003 88.0679L69.0014 88.075C68.2566 87.731 67.546 87.3272 66.8763 86.8679C67.153 86.7668 67.351 86.5049 67.351 86.195C67.351 85.7977 67.0266 85.4757 66.627 85.4757C66.2274 85.4757 65.9346 85.7715 65.908 86.1452C65.2167 85.5814 64.5806 84.9541 64.0049 84.2743C64.384 84.2515 64.6857 83.942 64.6857 83.5592C64.6857 83.1763 64.3613 82.8399 63.9617 82.8399C63.6404 82.8399 63.3714 83.0493 63.2766 83.3371C62.7888 82.6547 62.3576 81.9301 61.9931 81.167C62.0001 81.1674 62.007 81.1683 62.0139 81.1693C62.0225 81.1704 62.031 81.1716 62.0397 81.1716C62.4401 81.1716 62.7637 80.8496 62.7637 80.4519C62.7637 80.0542 62.4397 79.7326 62.0397 79.7326C61.8197 79.7326 61.6251 79.8322 61.4926 79.9858C61.1955 79.1851 60.9712 78.3491 60.8209 77.4887C60.9045 77.5225 60.9955 77.5419 61.0914 77.5419C61.4914 77.5419 61.8155 77.2195 61.8155 76.8222C61.8155 76.4249 61.4914 76.1029 61.0914 76.1029C60.9284 76.1029 60.7793 76.1584 60.6583 76.2489C60.6229 75.8372 60.6009 75.4216 60.6009 75.0008C60.6009 74.5799 60.6194 74.1849 60.6533 73.783C60.7708 73.8644 60.9123 73.9123 61.066 73.9123C61.4656 73.9123 61.79 73.5903 61.79 73.193C61.79 72.7957 61.4656 72.4733 61.066 72.4733C60.9785 72.4733 60.8961 72.4911 60.8186 72.5193C60.9677 71.6658 61.1908 70.8377 61.4848 70.0427C61.617 70.2108 61.8208 70.321 62.0532 70.321C62.4528 70.321 62.7772 69.999 62.7772 69.6013C62.7772 69.2037 62.4528 68.882 62.0532 68.882C62.0314 68.882 62.011 68.8849 61.9906 68.8878C61.9842 68.8887 61.9779 68.8896 61.9715 68.8904C62.3356 68.1205 62.7634 67.3864 63.2527 66.6978C63.3598 66.9624 63.6195 67.1499 63.924 67.1499C64.3239 67.1499 64.648 66.8275 64.648 66.4302C64.648 66.0625 64.3694 65.763 64.0114 65.7196C64.5401 65.0961 65.1208 64.5186 65.7473 63.992C65.8132 64.3217 66.1057 64.5703 66.4571 64.5703C66.8567 64.5703 67.1811 64.2483 67.1811 63.851C67.1811 63.5666 67.0135 63.3233 66.7731 63.2062C67.474 62.7161 68.22 62.2861 69.0049 61.9238C68.9975 61.9645 68.9918 62.0063 68.9918 62.0489C68.9918 62.4462 69.3162 62.7682 69.7158 62.7682C70.1154 62.7682 70.4398 62.4462 70.4398 62.0489C70.4398 61.8041 70.3165 61.5881 70.1277 61.4581C70.9138 61.1729 71.7326 60.9574 72.5749 60.8099C72.574 60.8183 72.573 60.8266 72.5719 60.835C72.5695 60.853 72.5672 60.871 72.5672 60.8897C72.5672 61.287 72.8913 61.6094 73.2912 61.6094C73.6912 61.6094 74.0149 61.287 74.0149 60.8897C74.0149 60.8 73.9964 60.7148 73.9663 60.6354C74.342 60.6061 74.7208 60.5871 75.1042 60.5871C75.5303 60.5871 75.9507 60.6091 76.3677 60.6449C76.3307 60.7319 76.3091 60.8274 76.3091 60.9281C76.3091 61.3254 76.6332 61.6474 77.0331 61.6474C77.4331 61.6474 77.7571 61.3254 77.7571 60.9281C77.7571 60.8971 77.7525 60.8673 77.7478 60.8374L77.7467 60.8304C78.5729 60.9813 79.3751 61.1996 80.1458 61.4836C80.0325 61.6105 79.9608 61.7763 79.9608 61.9596C79.9608 62.3569 80.2849 62.6793 80.6849 62.6793C81.0848 62.6793 81.3746 62.3857 81.4035 62.0147C82.1352 62.3664 82.8303 62.78 83.4877 63.2435C83.2654 63.3663 83.1136 63.5993 83.1136 63.87C83.1136 64.2673 83.4376 64.5893 83.8372 64.5893C84.1724 64.5893 84.4514 64.362 84.5339 64.0548C85.1469 64.5771 85.7168 65.1474 86.2347 65.763C85.948 65.8588 85.7399 66.1249 85.7399 66.442C85.7399 66.8393 86.0644 67.1617 86.464 67.1617C86.7129 67.1617 86.9317 67.037 87.062 66.8476C87.5117 67.4978 87.9082 68.1867 88.2476 68.9079C88.2452 68.9079 88.2428 68.9075 88.2404 68.9071C88.2379 68.9067 88.2354 68.9063 88.2326 68.9063C87.833 68.9063 87.5086 69.2284 87.5086 69.626C87.5086 70.0237 87.833 70.3457 88.2326 70.3457C88.438 70.3457 88.6218 70.2602 88.7536 70.1245C89.0429 70.9248 89.2614 71.7578 89.4051 72.6162C89.3204 72.5812 89.2275 72.5619 89.1293 72.5619C88.7297 72.5619 88.4056 72.8839 88.4056 73.2812C88.4056 73.6785 88.7297 74.0009 89.1293 74.0009C89.2899 74.0009 89.4364 73.9473 89.557 73.8598C89.5863 74.2362 89.6063 74.616 89.6063 75C89.6063 75.4171 89.5843 75.8288 89.5493 76.2368C89.4445 76.1771 89.3238 76.1406 89.1936 76.1406C88.794 76.1406 88.47 76.4626 88.47 76.8599C88.47 77.2572 88.794 77.5796 89.1936 77.5796C89.2568 77.5796 89.3165 77.5693 89.3747 77.5541C89.2271 78.373 89.014 79.1695 88.7331 79.9341C88.6014 79.7942 88.4153 79.706 88.2072 79.706C87.8076 79.706 87.4831 80.0284 87.4831 80.4257C87.4831 80.823 87.8076 81.145 88.2072 81.145C88.2098 81.145 88.2125 81.1446 88.2152 81.1442C88.218 81.1439 88.2208 81.1435 88.2237 81.1435C87.8762 81.8753 87.4677 82.5722 87.0061 83.2303C86.877 83.0334 86.6543 82.9026 86.4 82.9026C86.0004 82.9026 85.6764 83.2246 85.6764 83.6219C85.6764 83.9413 85.8867 84.2085 86.1765 84.3028C85.6714 84.8958 85.1185 85.4474 84.5244 85.9527ZM75.6751 67.1758C75.7621 68.1909 75.7086 69.2132 75.5163 70.2138H75.5167L75.1468 72.1372V72.1714L75.1429 72.1543L75.1387 72.1714V72.1372L74.7692 70.2127C74.5769 69.2128 74.5237 68.1912 74.6104 67.1769L75.1414 60.9703H75.1437L75.6751 67.1758ZM74.5312 82.8243C74.4441 81.8092 74.4977 80.7869 74.69 79.7862H74.6896L75.0595 77.8628V77.8286L75.0634 77.8457L75.0676 77.8286V77.8628L75.4371 79.7874C75.6294 80.7872 75.6826 81.8088 75.5959 82.8232L75.0649 89.0297H75.0626L74.5312 82.8243ZM74.2468 70.2712C74.1701 69.2554 73.9535 68.2543 73.6033 67.2963L71.462 61.438L71.4597 61.4387L72.5749 67.5692C72.7571 68.5714 73.0765 69.5443 73.5247 70.4613L74.3866 72.2258L74.3955 72.2589V72.241L74.4032 72.2566L74.3944 72.2235L74.2468 70.2712ZM76.6027 82.7038C76.2524 81.7457 76.0359 80.7447 75.9592 79.7288L75.8116 77.7766L75.8027 77.7435L75.8104 77.7591V77.7412L75.8193 77.7743L76.6813 79.5387C77.1294 80.4558 77.4489 81.4287 77.6311 82.4308L78.7462 88.5614L78.7439 88.5621L76.6027 82.7038ZM73.0357 70.6514C72.6951 69.6899 72.2234 68.7782 71.6339 67.9422L68.0288 62.8302L68.0269 62.8313L70.7122 68.4684C71.1511 69.3896 71.7148 70.2481 72.388 71.0195L73.6834 72.5037L73.7008 72.5334L73.6958 72.5163L73.7077 72.5296L73.6904 72.4999L73.0357 70.6518V70.6514ZM78.5724 82.0578C77.9828 81.2218 77.5112 80.3101 77.1705 79.3486V79.3482L76.5159 77.5001L76.4985 77.4705L76.5105 77.4838L76.5055 77.4667L76.5228 77.4963L77.8183 78.9806C78.4914 79.752 79.0552 80.6104 79.4941 81.5316L82.1794 87.1687L82.1775 87.1698L78.5724 82.0578ZM71.9646 71.3274C71.3835 70.4856 70.6888 69.7257 69.8996 69.0683L65.0765 65.0512L65.075 65.0528L69.1475 69.812C69.8129 70.5898 70.5828 71.2749 71.4355 71.8479L73.0762 72.9508L73.1009 72.9751L73.0917 72.9599L73.1067 72.9694L73.082 72.9451L71.965 71.327L71.9646 71.3274ZM80.3057 80.9317C79.5166 80.2743 78.8218 79.5143 78.2407 78.6726L78.2403 78.673L77.1233 77.0549L77.0986 77.0306L77.1137 77.0401L77.1044 77.0249L77.1291 77.0492L78.7698 78.1521C79.6225 78.7251 80.3924 79.4102 81.0579 80.188L85.1304 84.9472L85.1288 84.9487L80.3057 80.9317ZM71.1081 72.2539C70.3258 71.589 69.4554 71.0324 68.521 70.5994L62.8085 67.9506L62.8074 67.9525L67.9892 71.5095C68.8362 72.0908 69.7594 72.5558 70.7331 72.8919L72.6074 73.5382L72.6374 73.5553L72.6243 73.5432L72.6413 73.5485L72.6112 73.5314L71.1077 72.2536L71.1081 72.2539ZM81.6845 79.4007C80.7501 78.9677 79.8796 78.4111 79.0974 77.7461L79.0978 77.7465L77.5943 76.4687L77.5642 76.4516L77.5812 76.4569L77.5681 76.4447L77.5981 76.4619L79.4723 77.1082C80.4461 77.4443 81.3693 77.9092 82.2162 78.4905L87.3981 82.0476L87.3969 82.0495L81.6845 79.4007ZM70.5242 73.3674C69.594 72.9249 68.6075 72.6097 67.5911 72.4299L61.3785 71.3304L61.3777 71.3327L67.3163 73.4454C68.287 73.7906 69.3007 74.0042 70.3296 74.0799L72.3094 74.2255L72.3429 74.2343L72.3271 74.2259L72.3448 74.2267L72.3113 74.2179L70.5238 73.3678L70.5242 73.3674ZM82.6141 77.57C81.5976 77.3902 80.6112 77.075 79.681 76.6325L79.6814 76.6321L77.8939 75.782L77.8604 75.7733L77.8781 75.774L77.8623 75.7657L77.8958 75.7744L79.8756 75.92C80.9044 75.9957 81.9182 76.2093 82.8889 76.5546L88.8275 78.6673L88.8267 78.6695L82.6141 77.57ZM70.2522 74.5924C69.238 74.4027 68.2019 74.3499 67.1731 74.4358L60.8838 74.9601V74.9624L67.1742 75.4863C68.2023 75.5718 69.2376 75.5193 70.2511 75.3296L72.2016 74.965H72.2363L72.2189 74.9608L72.2363 74.957H72.2016L70.2522 74.5921V74.5924ZM83.0329 75.5643C82.0041 75.6502 80.9679 75.5973 79.9538 75.4076V75.408L78.0044 75.043H77.9697L77.9871 75.0392L77.9697 75.035H78.0044L79.9549 74.6704C80.9683 74.4807 82.0037 74.4283 83.0318 74.5138L89.3222 75.0377V75.04L83.0329 75.5643ZM70.3101 75.8451C69.2805 75.9208 68.2659 76.1345 67.2949 76.4801L61.3574 78.5928L61.3582 78.595L67.5716 77.4948C68.5873 77.3149 69.5733 76.9998 70.5027 76.5576L72.291 75.7071L72.3246 75.6984H72.3064L72.3222 75.6908L72.2887 75.6995L70.3101 75.8451ZM82.9103 73.52C81.9393 73.8656 80.9247 74.0792 79.8951 74.1549L77.9164 74.3005L77.8829 74.3093L77.8987 74.3017H77.8806L77.9141 74.2929L79.7024 73.4424C80.6318 73.0003 81.6179 72.6851 82.6336 72.5053L88.847 71.405L88.8477 71.4073L82.9103 73.52ZM70.6955 77.0401C69.721 77.3762 68.797 77.8415 67.9496 78.4232L62.7686 81.9802L62.7697 81.9821L68.4829 79.3326C69.4166 78.8996 70.2866 78.3433 71.0685 77.6792L72.5728 76.401L72.6028 76.3839L72.5855 76.3888L72.599 76.377L72.5689 76.3941L70.6959 77.0401H70.6955ZM82.2562 71.5768C81.4089 72.1585 80.4849 72.6239 79.5104 72.96H79.51L77.6369 73.6059L77.6069 73.623L77.6204 73.6112L77.603 73.6162L77.6331 73.5991L79.1374 72.3209C79.9192 71.6567 80.7893 71.1005 81.7229 70.6674L87.4362 68.0179L87.4373 68.0198L82.2562 71.5768ZM71.3805 78.0963C70.5274 78.6696 69.7571 79.3551 69.0909 80.1337L65.0195 84.8925L65.0211 84.894L69.8446 80.8758C70.633 80.2193 71.3273 79.4596 71.908 78.6183L73.0258 76.9994L73.0505 76.9751L73.0351 76.9842L73.0447 76.9694L73.02 76.9937L71.3801 78.0959L71.3805 78.0963ZM81.1146 69.8663C80.4484 70.6449 79.6781 71.3304 78.825 71.9037L78.8254 71.9041L77.1855 73.0062L77.1608 73.0306L77.1704 73.0157L77.155 73.0249L77.1797 73.0005L78.2975 71.3817C78.8782 70.5403 79.5726 69.7807 80.3609 69.1241L85.1844 65.1059L85.186 65.1075L81.1146 69.8663ZM72.32 78.9411C71.6461 79.7128 71.0819 80.5717 70.6431 81.4936L67.9585 87.1299L67.9604 87.1311L71.5655 82.0183C72.1547 81.1826 72.6259 80.2717 72.9666 79.311L73.6216 77.4617L73.639 77.4321L73.6266 77.445L73.632 77.4283L73.6147 77.4579L72.3196 78.9414L72.32 78.9411ZM79.563 68.5064C79.1242 69.4284 78.56 70.2872 77.8861 71.059L77.8865 71.0586L76.5914 72.5421L76.5741 72.5718L76.5795 72.555L76.5671 72.568L76.5845 72.5383L77.2395 70.6891C77.5802 69.7283 78.0514 68.8174 78.6406 67.9818L82.2457 62.869L82.2476 62.8701L79.563 68.5064ZM73.4484 79.5174C72.9998 80.4352 72.6804 81.4085 72.4982 82.4114L71.3838 88.5412L71.3861 88.5419L73.5274 82.6825C73.8772 81.7248 74.0938 80.7245 74.1705 79.7094L74.318 77.756L74.3269 77.7229L74.3184 77.7385L74.3192 77.721L74.3103 77.7541L73.4488 79.5178L73.4484 79.5174ZM77.7084 67.5887C77.5261 68.5916 77.2067 69.5649 76.7582 70.4827L76.7578 70.4823L75.8962 72.246L75.8874 72.2791L75.8881 72.2616L75.8796 72.2772L75.8885 72.2441L76.0361 70.2907C76.1128 69.2756 76.3293 68.2753 76.6792 67.3176L78.8204 61.4581L78.8228 61.4589L77.7084 67.5887ZM75.1032 72.1718C73.5315 72.1718 72.2568 73.4382 72.2568 75C72.2568 76.5618 73.5315 77.8283 75.1032 77.8283C76.675 77.8283 77.9493 76.5618 77.9493 75C77.9493 73.4382 76.675 72.1718 75.1032 72.1718Z" fill="#231D9A"/>
</g>
<defs>
<clipPath id="clip0_388_24159">
<rect width="150" height="150" fill="white"/>
</clipPath>
</defs>
</svg>
