<svg width="150" height="150" viewBox="0 0 150 150" fill="none" xmlns="http://www.w3.org/2000/svg">
<g clip-path="url(#clip0_197_6990)">
<rect width="150" height="150" rx="75" fill="white"></rect>
<clipPath id="mask0_197_6990" style="mask-type:alpha" maskUnits="userSpaceOnUse" x="0" y="0" width="150" height="150"><circle cx="75" cy="75" r="75" fill="white"></circle></clipPath>
<g clip-path="url(#mask0_197_6990)">
<path d="M0 0H150V150H0V0Z" fill="white"></path>
<rect width="75" height="80.8359" fill="#231D9A"></rect>
<path d="M-2.03125 2.6875L-0.90868 6.14242H2.72403L-0.214893 8.27767L0.907676 11.7326L-2.03125 9.59733L-4.97018 11.7326L-3.84761 8.27767L-6.78653 6.14242H-3.15382L-2.03125 2.6875Z" fill="white"></path>
<path d="M-2.03125 18.7812L-0.90868 22.2362H2.72403L-0.214893 24.3714L0.907676 27.8263L-2.03125 25.6911L-4.97018 27.8263L-3.84761 24.3714L-6.78653 22.2362H-3.15382L-2.03125 18.7812Z" fill="white"></path>
<path d="M-2.03125 34.875L-0.90868 38.3299H2.72403L-0.214893 40.4652L0.907676 43.9201L-2.03125 41.7848L-4.97018 43.9201L-3.84761 40.4652L-6.78653 38.3299H-3.15382L-2.03125 34.875Z" fill="white"></path>
<path d="M-2.03125 50.9688L-0.90868 54.4237H2.72403L-0.214893 56.5589L0.907676 60.0138L-2.03125 57.8786L-4.97018 60.0138L-3.84761 56.5589L-6.78653 54.4237H-3.15382L-2.03125 50.9688Z" fill="white"></path>
<path d="M-2.03125 67.0625L-0.90868 70.5174H2.72403L-0.214893 72.6527L0.907676 76.1076L-2.03125 73.9723L-4.97018 76.1076L-3.84761 72.6527L-6.78653 70.5174H-3.15382L-2.03125 67.0625Z" fill="white"></path>
<path d="M15 10.7344L16.1226 14.1893H19.7553L16.8164 16.3245L17.9389 19.7795L15 17.6442L12.0611 19.7795L13.1836 16.3245L10.2447 14.1893H13.8774L15 10.7344Z" fill="white"></path>
<path d="M15 26.8281L16.1226 30.283H19.7553L16.8164 32.4183L17.9389 35.8732L15 33.738L12.0611 35.8732L13.1836 32.4183L10.2447 30.283H13.8774L15 26.8281Z" fill="white"></path>
<path d="M15 42.9219L16.1226 46.3768H19.7553L16.8164 48.512L17.9389 51.967L15 49.8317L12.0611 51.967L13.1836 48.512L10.2447 46.3768H13.8774L15 42.9219Z" fill="white"></path>
<path d="M15 59.0156L16.1226 62.4705H19.7553L16.8164 64.6058L17.9389 68.0607L15 65.9255L12.0611 68.0607L13.1836 64.6058L10.2447 62.4705H13.8774L15 59.0156Z" fill="white"></path>
<path d="M32.0312 2.6875L33.1538 6.14242H36.7865L33.8476 8.27767L34.9702 11.7326L32.0312 9.59733L29.0923 11.7326L30.2149 8.27767L27.276 6.14242H30.9087L32.0312 2.6875Z" fill="white"></path>
<path d="M32.0312 18.7812L33.1538 22.2362H36.7865L33.8476 24.3714L34.9702 27.8263L32.0312 25.6911L29.0923 27.8263L30.2149 24.3714L27.276 22.2362H30.9087L32.0312 18.7812Z" fill="white"></path>
<path d="M32.0312 34.875L33.1538 38.3299H36.7865L33.8476 40.4652L34.9702 43.9201L32.0312 41.7848L29.0923 43.9201L30.2149 40.4652L27.276 38.3299H30.9087L32.0312 34.875Z" fill="white"></path>
<path d="M32.0312 50.9688L33.1538 54.4237H36.7865L33.8476 56.5589L34.9702 60.0138L32.0312 57.8786L29.0923 60.0138L30.2149 56.5589L27.276 54.4237H30.9087L32.0312 50.9688Z" fill="white"></path>
<path d="M32.0312 67.0625L33.1538 70.5174H36.7865L33.8476 72.6527L34.9702 76.1076L32.0312 73.9723L29.0923 76.1076L30.2149 72.6527L27.276 70.5174H30.9087L32.0312 67.0625Z" fill="white"></path>
<path d="M49.0625 10.7344L50.1851 14.1893H53.8178L50.8789 16.3245L52.0014 19.7795L49.0625 17.6442L46.1236 19.7795L47.2461 16.3245L44.3072 14.1893H47.9399L49.0625 10.7344Z" fill="white"></path>
<path d="M49.0625 26.8281L50.1851 30.283H53.8178L50.8789 32.4183L52.0014 35.8732L49.0625 33.738L46.1236 35.8732L47.2461 32.4183L44.3072 30.283H47.9399L49.0625 26.8281Z" fill="white"></path>
<path d="M49.0625 42.9219L50.1851 46.3768H53.8178L50.8789 48.512L52.0014 51.967L49.0625 49.8317L46.1236 51.967L47.2461 48.512L44.3072 46.3768H47.9399L49.0625 42.9219Z" fill="white"></path>
<path d="M49.0625 59.0156L50.1851 62.4705H53.8178L50.8789 64.6058L52.0014 68.0607L49.0625 65.9255L46.1236 68.0607L47.2461 64.6058L44.3072 62.4705H47.9399L49.0625 59.0156Z" fill="white"></path>
<path d="M66.0938 2.6875L67.2163 6.14242H70.849L67.9101 8.27767L69.0327 11.7326L66.0938 9.59733L63.1548 11.7326L64.2774 8.27767L61.3385 6.14242H64.9712L66.0938 2.6875Z" fill="white"></path>
<path d="M66.0938 18.7812L67.2163 22.2362H70.849L67.9101 24.3714L69.0327 27.8263L66.0938 25.6911L63.1548 27.8263L64.2774 24.3714L61.3385 22.2362H64.9712L66.0938 18.7812Z" fill="white"></path>
<path d="M66.0938 34.875L67.2163 38.3299H70.849L67.9101 40.4652L69.0327 43.9201L66.0938 41.7848L63.1548 43.9201L64.2774 40.4652L61.3385 38.3299H64.9712L66.0938 34.875Z" fill="white"></path>
<path d="M66.0938 50.9688L67.2163 54.4237H70.849L67.9101 56.5589L69.0327 60.0138L66.0938 57.8786L63.1548 60.0138L64.2774 56.5589L61.3385 54.4237H64.9712L66.0938 50.9688Z" fill="white"></path>
<path d="M66.0938 67.0625L67.2163 70.5174H70.849L67.9101 72.6527L69.0327 76.1076L66.0938 73.9723L63.1548 76.1076L64.2774 72.6527L61.3385 70.5174H64.9712L66.0938 67.0625Z" fill="white"></path>
<rect x="75" y="-0.769043" width="110.739" height="11.6567" fill="#F0263C"></rect>
<rect x="75" y="22.5449" width="81.5972" height="11.6567" fill="#F0263C"></rect>
<rect x="75" y="45.8589" width="81.5972" height="11.6567" fill="#F0263C"></rect>
<rect x="75" y="69.1714" width="110.739" height="11.6567" fill="#F0263C"></rect>
<rect x="1.56348" y="92.4854" width="183.594" height="11.6567" fill="#F0263C"></rect>
<rect x="1.56348" y="115.798" width="183.594" height="11.6567" fill="#F0263C"></rect>
<rect x="1.56348" y="139.112" width="183.594" height="11.6567" fill="#F0263C"></rect>
</g>
</g>
<defs>
<clipPath id="clip0_197_6990">
<rect width="150" height="150" rx="75" fill="white"></rect>
</clipPath>
</defs>
</svg>
